<?xml version="1.0" encoding="utf-8"?>
<!-- Generator: Adobe Illustrator 27.0.0, SVG Export Plug-In . SVG Version: 6.00 Build 0)  -->
<svg version="1.1" id="Layer_2_00000039854346705003701310000007796941092873055675_"
	 xmlns="http://www.w3.org/2000/svg" xmlns:xlink="http://www.w3.org/1999/xlink" x="0px" y="0px" viewBox="0 0 709.9 263.9"
	 style="enable-background:new 0 0 709.9 263.9;" xml:space="preserve">
<style type="text/css">
	.st0{fill:#243C34;}
</style>
<g id="Layer_2-2">
	<g>
		<path class="st0" d="M0,129.8V38.9h15.2l1,15.5c2.7-5.5,6.5-9.9,11.4-13s10.6-4.7,17.2-4.7c6.9,0,12.7,1.4,17.6,4.3
			c4.8,2.9,8.6,7.2,11.2,13.1c2.7,5.8,4,13.1,4,21.9v53.7H60.7V77.9c0-8.4-1.8-14.8-5.2-19.2c-3.5-4.4-8.6-6.6-15.2-6.6
			c-4.4,0-8.3,1.1-11.8,3.4s-6.3,5.6-8.4,9.9s-3.1,9.6-3.1,15.9v48.5L0,129.8L0,129.8z"/>
		<path class="st0" d="M234.5,129.8V38.9h15.2l1.2,12.6c2.7-4.6,6.3-8.2,10.8-10.8c4.5-2.6,9.5-4,15-4c4.4,0,8.3,0.6,11.8,1.8
			s6.6,3.1,9.3,5.6c2.7,2.5,4.9,5.7,6.6,9.4c2.9-5.3,7-9.4,12.1-12.4c5.1-2.9,10.7-4.4,16.6-4.4c6.8,0,12.6,1.4,17.5,4.3
			s8.6,7.3,11.2,13.2c2.6,5.9,3.9,13.2,3.9,21.8v53.7h-16.7V77.9c0-8.5-1.6-15-4.8-19.3s-7.9-6.5-13.9-6.5c-4.2,0-7.9,1.1-11.2,3.4
			s-5.8,5.6-7.7,10c-1.9,4.4-2.8,9.7-2.8,16v48.3h-16.9V77.9c0-8.5-1.6-15-4.9-19.3c-3.3-4.3-7.9-6.5-14-6.5
			c-4.1,0-7.7,1.1-10.8,3.4s-5.7,5.6-7.7,10s-3,9.7-3,16v48.3L234.5,129.8L234.5,129.8z"/>
		<path class="st0" d="M408.1,132c-7,0-12.8-1.3-17.4-3.8c-4.6-2.5-8.1-5.9-10.3-10.2c-2.2-4.3-3.4-8.9-3.4-14
			c0-5.9,1.5-11,4.4-15.2c2.9-4.3,7.1-7.5,12.5-9.8c5.4-2.3,11.9-3.4,19.6-3.4h22c0-5.3-0.7-9.7-2.2-13.2c-1.5-3.5-3.6-6.1-6.5-7.9
			c-2.9-1.8-6.5-2.7-10.9-2.7c-5.1,0-9.4,1.3-13,3.9s-5.9,6.5-6.8,11.8h-16.9c0.7-6.5,2.7-12,6.2-16.6s7.9-8,13.3-10.5
			c5.4-2.4,11.2-3.6,17.2-3.6c8,0,14.7,1.5,20.1,4.5c5.4,3,9.5,7.2,12.2,12.7s4.1,12,4.1,19.6v56.3h-14.7l-1.4-15.3
			c-1.1,2.4-2.6,4.7-4.3,6.8c-1.8,2.2-3.8,4-6.1,5.6c-2.3,1.6-4.9,2.8-7.9,3.7S411.8,132,408.1,132L408.1,132z M411.3,117.4
			c3.6,0,6.9-0.8,9.8-2.3s5.4-3.7,7.5-6.5c2.1-2.8,3.7-5.8,4.8-9.2c1.1-3.4,1.7-6.9,1.9-10.6v-0.4h-20.1c-5,0-8.9,0.6-11.9,1.8
			c-3,1.2-5.1,2.9-6.5,5.1c-1.4,2.2-2,4.8-2,7.7s0.6,5.4,1.9,7.6c1.3,2.2,3.2,3.8,5.8,5.1C405,116.8,407.9,117.4,411.3,117.4
			L411.3,117.4z"/>
		<path class="st0" d="M504.3,132c-8,0-15.1-2.1-21.3-6.2c-6.2-4.2-11-9.8-14.4-17s-5.1-15.3-5.1-24.3s1.7-17.5,5.1-24.6
			s8.2-12.8,14.5-16.9c6.2-4.1,13.4-6.1,21.4-6.1c6.9,0,12.8,1.4,17.8,4.2s8.9,6.8,11.8,11.8V0h16.9v129.8h-15.2l-1.5-14.3
			c-1.8,2.9-4.1,5.6-6.8,8c-2.8,2.5-6,4.5-9.8,6C513.8,131.2,509.3,132,504.3,132L504.3,132z M507.3,116.3c5.3,0,9.9-1.3,13.9-4.1
			c4-2.7,7.1-6.4,9.3-11.2s3.3-10.3,3.3-16.7s-1.1-12-3.3-16.8s-5.3-8.5-9.3-11.2c-4-2.6-8.7-4-13.9-4s-9.8,1.3-13.9,4
			s-7.2,6.4-9.4,11.2s-3.3,10.3-3.3,16.6s1.1,12.1,3.3,16.9c2.2,4.8,5.3,8.5,9.4,11.2C497.5,114.9,502.1,116.3,507.3,116.3z"/>
		<path class="st0" d="M639.2,58.4c-3.2-6.5-7.8-11.7-13.8-15.7c-6-4-13.1-6-21.5-6s-15.7,2-22.1,6c-6.4,4-11.3,9.6-14.7,16.8
			c-3.4,7.1-5.2,15.5-5.2,25s1.8,17.8,5.3,24.9s8.5,12.6,14.7,16.6c6.2,4,13.4,6,21.5,6c6.8,0,12.7-1.3,17.8-3.8
			c5.1-2.5,9.3-6,12.8-10.4c3.5-4.4,6-9.3,7.4-14.9h-16.9c-1.6,4.3-4.1,7.8-7.7,10.3s-8,3.8-13.4,3.8c-4.6,0-8.8-1.2-12.6-3.6
			c-3.8-2.4-6.8-5.9-9-10.5c-2-4-3.1-8.8-3.3-14.4h65c0.2-1.6,0.3-3.1,0.3-4.5v-4C644.1,72.1,642.5,64.9,639.2,58.4L639.2,58.4z
			 M578.9,75.9c0.5-4.3,1.5-8,3.1-11.1c2.2-4.3,5.3-7.5,9.1-9.7c3.8-2.2,8-3.3,12.7-3.3c6.5,0,12,2.2,16.4,6.5
			c4.4,4.3,6.8,10.2,7.1,17.7L578.9,75.9L578.9,75.9z"/>
		<path class="st0" d="M0.2,261.7v-90.9h15.2l1.4,17.1c2-4.1,4.5-7.5,7.5-10.4c3-2.8,6.6-5,10.8-6.6s8.9-2.3,14.1-2.3v18.9h-6.1
			c-3.5,0-6.8,0.5-10,1.4c-3.2,1-5.9,2.5-8.3,4.7s-4.2,5.1-5.7,8.8s-2.1,8.3-2.1,14v45.3L0.2,261.7L0.2,261.7z"/>
		<path class="st0" d="M129.9,190.3c-3.2-6.5-7.8-11.7-13.8-15.7s-13.1-5.9-21.5-5.9s-15.7,2-22.1,6c-6.4,4-11.3,9.6-14.7,16.8
			c-3.4,7.1-5.2,15.5-5.2,25s1.8,17.8,5.3,24.9c3.5,7.1,8.5,12.6,14.7,16.6c6.2,4,13.4,6,21.5,6c6.8,0,12.7-1.3,17.8-3.8
			c5.1-2.5,9.3-6,12.8-10.4c3.5-4.4,6-9.4,7.4-14.9h-16.9c-1.6,4.3-4.1,7.8-7.7,10.3c-3.6,2.5-8,3.8-13.4,3.8
			c-4.6,0-8.8-1.2-12.6-3.6c-3.8-2.4-6.8-5.9-9-10.5c-2-4-3.1-8.8-3.3-14.4h65c0.2-1.6,0.3-3.1,0.3-4.5v-4
			C134.7,204,133.1,196.8,129.9,190.3L129.9,190.3z M69.5,207.8c0.4-4.3,1.5-8,3.1-11.1c2.2-4.3,5.3-7.5,9.1-9.7
			c3.8-2.2,8.1-3.3,12.7-3.3c6.5,0,12,2.2,16.4,6.5c4.4,4.3,6.8,10.2,7.1,17.7L69.5,207.8L69.5,207.8z"/>
		<path class="st0" d="M168.5,261.7l-32.1-90.9h17.9l24.2,73.6l24.5-73.6h17.4l-31.9,90.9H168.5L168.5,261.7z"/>
		<path class="st0" d="M265.1,263.9c-8.1,0-15.4-2-21.8-6s-11.4-9.5-15-16.7c-3.6-7.1-5.4-15.4-5.4-24.8s1.8-18,5.5-25.2
			c3.7-7.1,8.7-12.7,15.1-16.7c6.4-4,13.6-5.9,21.6-5.9s15.3,2,21.6,5.9s11.3,9.5,15,16.6s5.6,15.4,5.6,25.1s-1.9,17.8-5.6,25
			s-8.8,12.7-15.1,16.7C280.3,261.9,273.1,263.9,265.1,263.9L265.1,263.9z M264.9,248.4c4.5,0,8.6-1.2,12.4-3.6
			c3.8-2.4,6.8-6,9.2-10.8c2.4-4.8,3.5-10.7,3.5-17.7s-1.2-13-3.5-17.8c-2.3-4.8-5.3-8.3-9-10.7c-3.7-2.4-7.8-3.6-12.3-3.6
			s-8.7,1.2-12.5,3.6s-6.9,6-9.2,10.7c-2.3,4.8-3.5,10.7-3.5,17.8s1.1,12.9,3.5,17.7c2.3,4.8,5.3,8.4,9,10.8
			C256.3,247.2,260.4,248.4,264.9,248.4z"/>
		<path class="st0" d="M580.7,263.9c-8.1,0-15.4-2-21.8-6s-11.4-9.5-15-16.7c-3.6-7.1-5.4-15.4-5.4-24.8s1.8-18,5.5-25.2
			c3.7-7.1,8.7-12.7,15.1-16.7c6.4-4,13.6-5.9,21.6-5.9s15.3,2,21.6,5.9s11.3,9.5,15,16.6s5.6,15.4,5.6,25.1s-1.9,17.8-5.6,25
			c-3.7,7.1-8.8,12.7-15.1,16.7C595.9,261.9,588.7,263.9,580.7,263.9L580.7,263.9z M580.6,248.4c4.5,0,8.7-1.2,12.4-3.6
			c3.8-2.4,6.8-6,9.2-10.8c2.4-4.8,3.5-10.7,3.5-17.7s-1.2-13-3.5-17.8c-2.3-4.8-5.3-8.3-9-10.7c-3.7-2.4-7.8-3.6-12.3-3.6
			s-8.7,1.2-12.5,3.6s-6.9,6-9.2,10.7s-3.5,10.7-3.5,17.8s1.2,12.9,3.5,17.7s5.3,8.4,9,10.8C571.9,247.2,576.1,248.4,580.6,248.4
			L580.6,248.4z"/>
		<path class="st0" d="M318.9,261.7V142.5h16.9v119.2H318.9z"/>
		<path class="st0" d="M384.1,263.9c-6.5,0-12.3-1.4-17.2-4.3c-5-2.9-8.7-7.2-11.3-13c-2.6-5.8-3.9-13-3.9-21.8v-53.9h16.9v51.9
			c0,8.7,1.7,15.1,5.2,19.4c3.4,4.3,8.5,6.4,15.1,6.4c4.4,0,8.3-1.1,11.8-3.4c3.5-2.3,6.3-5.6,8.4-9.8c2.1-4.3,3.1-9.5,3.1-15.8
			v-48.7h16.9v90.9h-15.2l-1-15.5c-2.6,5.5-6.4,9.9-11.4,13S390.7,263.8,384.1,263.9L384.1,263.9z"/>
		<path class="st0" d="M482.4,261.7c-5.4,0-10.1-0.9-14-2.7c-3.9-1.8-7-4.8-9.1-9s-3.2-9.9-3.2-17.1V186h-14.7v-15.1H456l2.2-22.9
			h14.7v22.9h24V186h-24V233c0,5.2,1,8.7,3,10.6c2,1.9,5.5,2.8,10.5,2.8h9.8v15.3H482.4L482.4,261.7z"/>
		<path class="st0" d="M519.7,162.7c-2.9,0-5.2-0.9-7.1-2.9c-1.8-1.9-2.8-4.3-2.8-7.3s0.9-5.2,2.8-7.1c1.8-1.9,4.2-2.8,7.1-2.8
			s5.1,0.9,7,2.8c1.9,1.9,2.8,4.2,2.8,7.1s-0.9,5.4-2.8,7.3S522.5,162.7,519.7,162.7z M510.8,261.7v-90.9h16.9v90.9H510.8
			L510.8,261.7z"/>
		<path class="st0" d="M632.3,261.7v-90.9h15.2l1,15.5c2.7-5.5,6.5-9.9,11.4-13c4.9-3.1,10.6-4.7,17.2-4.7c6.9,0,12.7,1.4,17.6,4.3
			s8.6,7.2,11.2,13.1c2.7,5.8,4,13.1,4,21.9v53.7H693v-51.9c0-8.4-1.8-14.8-5.2-19.2s-8.6-6.6-15.2-6.6c-4.4,0-8.3,1.1-11.8,3.4
			s-6.3,5.6-8.4,9.9c-2.1,4.3-3.1,9.6-3.1,15.9v48.5L632.3,261.7L632.3,261.7z"/>
		<g>
			<g>
				<path class="st0" d="M217.6,59.3c-3.7-7.1-8.7-12.6-15.1-16.6c-5.9-3.7-12.7-5.7-20.2-5.9v15.5c4,0.2,7.7,1.4,11.1,3.6
					c3.7,2.4,6.7,6,9.1,10.7c2.3,4.8,3.5,10.7,3.5,17.8s-1.2,12.9-3.6,17.7c-2.4,4.8-5.4,8.4-9.2,10.8c-3.3,2.1-6.9,3.3-10.9,3.6
					V132c7.4-0.2,14.2-2.2,20.1-5.9c6.4-4,11.4-9.5,15.1-16.7c3.7-7.2,5.6-15.5,5.6-25S221.3,66.4,217.6,59.3L217.6,59.3z"/>
				<path class="st0" d="M129.6,116.5c-4-0.2-7.7-1.4-11.1-3.6c-3.7-2.4-6.7-6-9.1-10.8c-2.3-4.8-3.5-10.7-3.5-17.7s1.2-13,3.5-17.8
					c2.3-4.8,5.4-8.3,9.2-10.7c3.4-2.1,7-3.3,10.9-3.5V36.8c-7.4,0.2-14.2,2.2-20.2,5.9c-6.4,4-11.5,9.5-15.1,16.7
					c-3.7,7.2-5.5,15.6-5.5,25.2s1.8,17.7,5.4,24.8c3.6,7.2,8.6,12.7,15.1,16.7c6.1,3.7,12.8,5.7,20.4,5.9L129.6,116.5L129.6,116.5z
					"/>
			</g>
			<path class="st0" d="M156,94.4c-2.9,0-5.2-0.9-7.1-2.8c-1.8-1.9-2.8-4.3-2.8-7.3s0.9-5.2,2.8-7.1c1.8-1.8,4.2-2.8,7.1-2.8
				s5.1,0.9,7,2.8c1.9,1.8,2.8,4.2,2.8,7.1s-0.9,5.4-2.8,7.3S158.7,94.4,156,94.4z"/>
		</g>
	</g>
</g>
</svg>
