<?xml version="1.0" encoding="UTF-8"?>
<svg id="Layer_2" data-name="Layer 2" xmlns="http://www.w3.org/2000/svg" viewBox="0 0 709.91 263.87">
  <defs>
    <style>
      .cls-1 {
        fill: #ccf663;
      }

      .cls-2 {
        fill: #243c34;
      }
    </style>
  </defs>
  <g id="Layer_2-2" data-name="Layer 2">
    <g>
      <path class="cls-2" d="M0,129.83V38.95H15.21l1.01,15.51c2.7-5.53,6.51-9.86,11.41-12.98,4.9-3.12,10.62-4.69,17.16-4.69,6.87,0,12.73,1.44,17.58,4.33,4.84,2.89,8.59,7.24,11.24,13.07,2.65,5.83,3.97,13.14,3.97,21.91v53.74h-16.9v-51.93c0-8.41-1.75-14.81-5.24-19.2-3.49-4.39-8.56-6.58-15.21-6.58-4.39,0-8.34,1.14-11.83,3.43-3.49,2.29-6.28,5.59-8.37,9.92-2.09,4.33-3.13,9.62-3.13,15.87v48.51H0Z"/>
      <path class="cls-2" d="M234.51,129.83V38.95h15.21l1.18,12.62c2.7-4.57,6.31-8.17,10.82-10.82,4.51-2.64,9.52-3.97,15.04-3.97,4.39,0,8.34,.6,11.83,1.8,3.49,1.2,6.59,3.07,9.3,5.59,2.7,2.53,4.9,5.65,6.59,9.38,2.93-5.29,6.96-9.4,12.08-12.35,5.13-2.94,10.67-4.42,16.65-4.42,6.76,0,12.59,1.44,17.49,4.33s8.65,7.28,11.24,13.16c2.59,5.89,3.89,13.16,3.89,21.82v53.74h-16.73v-51.93c0-8.53-1.6-14.97-4.82-19.29s-7.86-6.49-13.94-6.49c-4.17,0-7.89,1.14-11.16,3.43-3.27,2.29-5.83,5.62-7.69,10.01-1.86,4.39-2.79,9.71-2.79,15.96v48.33h-16.9v-51.93c0-8.53-1.63-14.97-4.9-19.29-3.27-4.33-7.94-6.49-14.03-6.49-4.06,0-7.66,1.14-10.82,3.43-3.16,2.29-5.72,5.62-7.69,10.01-1.97,4.39-2.96,9.71-2.96,15.96v48.33h-16.9Z"/>
      <path class="cls-2" d="M408.1,131.99c-6.99,0-12.79-1.26-17.41-3.79-4.62-2.52-8.06-5.92-10.31-10.19-2.25-4.27-3.38-8.93-3.38-13.98,0-5.89,1.46-10.97,4.39-15.24,2.93-4.27,7.1-7.54,12.51-9.83,5.41-2.28,11.94-3.43,19.61-3.43h21.97c0-5.29-.73-9.68-2.2-13.16-1.46-3.49-3.63-6.13-6.51-7.93-2.87-1.8-6.51-2.71-10.9-2.71-5.07,0-9.41,1.29-13.02,3.88-3.61,2.59-5.86,6.52-6.76,11.81h-16.9c.67-6.49,2.73-12.02,6.17-16.59,3.44-4.57,7.86-8.05,13.27-10.46,5.41-2.4,11.16-3.61,17.24-3.61,8,0,14.7,1.5,20.11,4.51,5.41,3.01,9.49,7.24,12.25,12.71,2.76,5.47,4.14,11.99,4.14,19.56v56.26h-14.71l-1.35-15.33c-1.13,2.41-2.56,4.69-4.31,6.85-1.75,2.16-3.78,4.03-6.08,5.59-2.31,1.56-4.93,2.8-7.86,3.7-2.93,.9-6.25,1.35-9.97,1.35Zm3.21-14.61c3.6,0,6.87-.78,9.8-2.34,2.93-1.56,5.44-3.72,7.52-6.49,2.08-2.76,3.69-5.83,4.82-9.2,1.12-3.36,1.74-6.91,1.86-10.64v-.36h-20.11c-4.96,0-8.93,.6-11.92,1.8-2.99,1.2-5.15,2.92-6.51,5.14-1.35,2.23-2.03,4.78-2.03,7.66s.65,5.41,1.94,7.57c1.3,2.16,3.21,3.85,5.75,5.05,2.53,1.2,5.49,1.8,8.87,1.8Z"/>
      <path class="cls-2" d="M504.28,131.99c-8,0-15.1-2.07-21.3-6.22-6.2-4.15-10.99-9.83-14.37-17.04-3.38-7.21-5.07-15.33-5.07-24.34s1.69-17.46,5.07-24.61c3.38-7.15,8.2-12.77,14.45-16.86,6.25-4.08,13.38-6.13,21.38-6.13,6.87,0,12.82,1.41,17.83,4.24,5.01,2.83,8.93,6.76,11.75,11.81V0h16.9V129.83h-15.21l-1.52-14.25c-1.8,2.89-4.09,5.56-6.84,8.02-2.76,2.46-6.03,4.48-9.8,6.04-3.78,1.56-8.2,2.34-13.27,2.34Zm3.04-15.69c5.3,0,9.94-1.35,13.94-4.06,4-2.7,7.1-6.43,9.3-11.18,2.2-4.75,3.3-10.31,3.3-16.68s-1.1-11.96-3.3-16.77c-2.2-4.81-5.3-8.53-9.3-11.18-4-2.64-8.65-3.97-13.94-3.97s-9.8,1.32-13.86,3.97c-4.06,2.65-7.18,6.37-9.38,11.18-2.2,4.81-3.3,10.34-3.3,16.59s1.1,12.11,3.3,16.86c2.2,4.75,5.32,8.48,9.38,11.18,4.05,2.71,8.67,4.06,13.86,4.06Z"/>
      <path class="cls-2" d="M639.25,58.42c-3.21-6.49-7.8-11.72-13.77-15.69-5.97-3.97-13.13-5.95-21.47-5.95s-15.69,2.02-22.06,6.04c-6.37,4.03-11.27,9.62-14.7,16.77-3.44,7.15-5.15,15.48-5.15,24.98s1.77,17.79,5.32,24.88c3.55,7.09,8.45,12.62,14.71,16.59,6.25,3.97,13.44,5.95,21.55,5.95,6.76,0,12.68-1.26,17.75-3.79,5.07-2.52,9.35-5.98,12.85-10.37,3.49-4.39,5.97-9.35,7.44-14.88h-16.9c-1.58,4.33-4.14,7.75-7.69,10.28s-8.03,3.79-13.44,3.79c-4.62,0-8.82-1.2-12.59-3.61-3.78-2.4-6.79-5.89-9.04-10.46-1.97-3.98-3.07-8.79-3.32-14.43h65.02c.22-1.56,.34-3.07,.34-4.51v-3.97c0-7.93-1.6-15.15-4.82-21.64Zm-60.34,17.49c.45-4.28,1.48-7.98,3.13-11.09,2.25-4.27,5.29-7.51,9.13-9.74,3.83-2.22,8.05-3.34,12.68-3.34,6.53,0,12,2.16,16.4,6.49,4.39,4.33,6.76,10.22,7.1,17.67h-48.42Z"/>
      <path class="cls-2" d="M.21,261.71v-90.88H15.43l1.35,17.13c2.03-4.09,4.53-7.54,7.52-10.37,2.99-2.82,6.59-5.02,10.82-6.58,4.23-1.56,8.93-2.34,14.11-2.34v18.93h-6.08c-3.49,0-6.82,.48-9.97,1.44-3.16,.96-5.91,2.53-8.28,4.69-2.37,2.16-4.25,5.08-5.66,8.75-1.41,3.67-2.11,8.33-2.11,13.98v45.26H.21Z"/>
      <path class="cls-2" d="M129.88,190.3c-3.21-6.49-7.8-11.72-13.77-15.69-5.97-3.97-13.13-5.95-21.47-5.95s-15.69,2.02-22.06,6.04c-6.37,4.03-11.27,9.62-14.7,16.77-3.44,7.15-5.15,15.48-5.15,24.98s1.77,17.79,5.32,24.88c3.55,7.09,8.45,12.62,14.71,16.59,6.25,3.97,13.44,5.95,21.55,5.95,6.76,0,12.68-1.26,17.75-3.79,5.07-2.52,9.35-5.98,12.85-10.37,3.49-4.39,5.97-9.35,7.44-14.88h-16.9c-1.58,4.33-4.14,7.75-7.69,10.28-3.55,2.52-8.03,3.79-13.44,3.79-4.62,0-8.82-1.2-12.59-3.61-3.78-2.4-6.79-5.89-9.04-10.46-1.97-3.98-3.07-8.79-3.32-14.43h65.02c.22-1.56,.34-3.07,.34-4.51v-3.97c0-7.93-1.6-15.15-4.82-21.64Zm-60.34,17.49c.45-4.28,1.48-7.98,3.13-11.09,2.25-4.27,5.29-7.51,9.13-9.74,3.83-2.22,8.05-3.34,12.68-3.34,6.53,0,12,2.16,16.4,6.49,4.39,4.33,6.76,10.22,7.1,17.67h-48.42Z"/>
      <path class="cls-2" d="M168.48,261.71l-32.11-90.88h17.92l24.17,73.57,24.51-73.57h17.41l-31.94,90.88h-19.94Z"/>
      <path class="cls-2" d="M265.1,263.87c-8.11,0-15.38-1.98-21.8-5.95-6.42-3.97-11.44-9.53-15.04-16.68-3.61-7.15-5.41-15.42-5.41-24.79s1.83-18,5.49-25.16c3.66-7.15,8.7-12.71,15.13-16.68,6.42-3.97,13.63-5.95,21.64-5.95s15.32,1.98,21.63,5.95c6.31,3.97,11.32,9.5,15.04,16.59,3.72,7.09,5.58,15.45,5.58,25.06s-1.86,17.82-5.58,24.97c-3.72,7.15-8.76,12.71-15.13,16.68-6.37,3.97-13.55,5.95-21.55,5.95Zm-.17-15.51c4.51,0,8.65-1.2,12.42-3.61,3.77-2.4,6.84-6.01,9.21-10.82,2.37-4.81,3.55-10.7,3.55-17.67s-1.16-13.01-3.46-17.76c-2.31-4.75-5.32-8.32-9.04-10.73-3.72-2.4-7.83-3.61-12.34-3.61s-8.68,1.2-12.51,3.61c-3.83,2.41-6.9,5.98-9.21,10.73-2.31,4.75-3.46,10.67-3.46,17.76s1.15,12.86,3.46,17.67c2.31,4.81,5.32,8.42,9.04,10.82,3.72,2.41,7.83,3.61,12.34,3.61Z"/>
      <path class="cls-2" d="M580.74,263.87c-8.11,0-15.38-1.98-21.8-5.95-6.42-3.97-11.44-9.53-15.04-16.68-3.61-7.15-5.41-15.42-5.41-24.79s1.83-18,5.49-25.16c3.66-7.15,8.7-12.71,15.13-16.68,6.42-3.97,13.63-5.95,21.64-5.95s15.32,1.98,21.63,5.95c6.31,3.97,11.32,9.5,15.04,16.59,3.72,7.09,5.58,15.45,5.58,25.06s-1.86,17.82-5.58,24.97c-3.72,7.15-8.76,12.71-15.13,16.68-6.37,3.97-13.55,5.95-21.55,5.95Zm-.17-15.51c4.51,0,8.65-1.2,12.42-3.61,3.77-2.4,6.84-6.01,9.21-10.82,2.37-4.81,3.55-10.7,3.55-17.67s-1.16-13.01-3.46-17.76c-2.31-4.75-5.32-8.32-9.04-10.73-3.72-2.4-7.83-3.61-12.34-3.61s-8.68,1.2-12.51,3.61c-3.83,2.41-6.9,5.98-9.21,10.73-2.31,4.75-3.46,10.67-3.46,17.76s1.15,12.86,3.46,17.67c2.31,4.81,5.32,8.42,9.04,10.82,3.72,2.41,7.83,3.61,12.34,3.61Z"/>
      <path class="cls-2" d="M318.89,261.7v-119.21h16.9v119.21h-16.9Z"/>
      <path class="cls-2" d="M384.12,263.87c-6.53,0-12.28-1.44-17.24-4.33-4.96-2.89-8.73-7.21-11.32-12.98-2.59-5.77-3.89-13.04-3.89-21.82v-53.92h16.9v51.93c0,8.66,1.72,15.12,5.16,19.38,3.44,4.27,8.48,6.4,15.13,6.4,4.39,0,8.34-1.14,11.83-3.43,3.49-2.28,6.28-5.56,8.37-9.83,2.08-4.27,3.13-9.53,3.13-15.78v-48.69h16.9v90.88h-15.21l-1.01-15.51c-2.59,5.53-6.4,9.86-11.41,12.98-5.01,3.12-10.79,4.69-17.33,4.69Z"/>
      <path class="cls-2" d="M482.4,261.71c-5.41,0-10.09-.9-14.03-2.71-3.94-1.8-6.99-4.81-9.13-9.02-2.14-4.21-3.21-9.92-3.21-17.13v-46.88h-14.7v-15.15h14.7l2.2-22.9h14.7v22.9h24v15.15h-24v47.06c0,5.17,1.01,8.69,3.04,10.55,2.03,1.87,5.52,2.8,10.48,2.8h9.8v15.33h-13.86Z"/>
      <path class="cls-2" d="M519.72,162.7c-2.87,0-5.22-.95-7.06-2.85-1.83-1.9-2.75-4.33-2.75-7.29s.91-5.2,2.75-7.05c1.83-1.85,4.18-2.77,7.06-2.77s5.1,.93,6.98,2.77c1.88,1.85,2.82,4.2,2.82,7.05s-.94,5.39-2.82,7.29c-1.88,1.9-4.21,2.85-6.98,2.85Zm-8.89,99v-90.88h16.9v90.88h-16.9Z"/>
      <path class="cls-2" d="M632.33,261.71v-90.88h15.21l1.01,15.51c2.7-5.53,6.51-9.86,11.41-12.98,4.9-3.12,10.62-4.69,17.16-4.69,6.87,0,12.73,1.44,17.58,4.33s8.59,7.24,11.24,13.07c2.65,5.83,3.97,13.14,3.97,21.91v53.74h-16.9v-51.93c0-8.41-1.75-14.81-5.24-19.2-3.49-4.39-8.56-6.58-15.21-6.58-4.39,0-8.34,1.14-11.83,3.43-3.49,2.29-6.28,5.59-8.37,9.92-2.09,4.33-3.13,9.62-3.13,15.87v48.51h-16.9Z"/>
      <g>
        <g>
          <path class="cls-1" d="M217.61,59.31c-3.72-7.1-8.74-12.63-15.05-16.6-5.95-3.74-12.69-5.71-20.23-5.93v15.53c4.02,.2,7.73,1.38,11.1,3.57,3.72,2.41,6.73,5.98,9.05,10.73,2.31,4.75,3.47,10.67,3.47,17.77s-1.18,12.87-3.55,17.68c-2.37,4.81-5.44,8.42-9.22,10.82-3.33,2.12-6.95,3.3-10.85,3.55v15.55c7.44-.22,14.16-2.2,20.15-5.93,6.37-3.97,11.41-9.53,15.13-16.69,3.72-7.15,5.58-15.48,5.58-24.99s-1.86-17.98-5.58-25.08Z"/>
          <path class="cls-1" d="M129.61,116.46c-4.02-.2-7.73-1.38-11.1-3.57-3.72-2.4-6.74-6.01-9.05-10.82-2.31-4.81-3.47-10.7-3.47-17.68s1.15-13.02,3.47-17.77c2.31-4.75,5.38-8.33,9.21-10.73,3.38-2.12,7.02-3.3,10.93-3.55v-15.55c-7.44,.22-14.19,2.2-20.23,5.93-6.43,3.97-11.47,9.53-15.13,16.69-3.66,7.16-5.5,15.55-5.5,25.17s1.8,17.65,5.41,24.8c3.61,7.16,8.62,12.72,15.05,16.69,6.05,3.74,12.85,5.71,20.4,5.93v-15.54Z"/>
        </g>
        <path class="cls-1" d="M155.97,94.37c-2.87,0-5.22-.95-7.06-2.85-1.83-1.9-2.75-4.33-2.75-7.29s.91-5.2,2.75-7.05c1.83-1.85,4.18-2.77,7.06-2.77s5.1,.93,6.98,2.77c1.88,1.85,2.82,4.2,2.82,7.05s-.94,5.39-2.82,7.29c-1.88,1.9-4.21,2.85-6.98,2.85Z"/>
      </g>
    </g>
  </g>
</svg>